<?xml version="1.0" encoding="UTF-8"?>
<svg id="_レイヤー_1" data-name="レイヤー_1" xmlns="http://www.w3.org/2000/svg" xmlns:inkscape="http://www.inkscape.org/namespaces/inkscape" version="1.1" viewBox="0 0 1103 1426">
  <!-- Generator: Adobe Illustrator 30.6.0, SVG Export Plug-In . SVG Version: 2.1.4 Build 109)  -->
  <defs>
    <style>
      .st0 {
        fill: #faf7f1;
      }

      .st1 {
        fill: #f05a24;
      }

      .st2 {
        fill: #0756a6;
      }
    </style>
  </defs>
  <g id="steam" inkscape:groupmode="layer" inkscape:label="02 Steam 窶Gather, Create, Spread">
    <path id="steam-gather-left" class="st1" d="M495.31,549.36c4,15.67,5.67,29,5,40s-1.67,18.67-3,23-2.83,7-4.5,8-2.5-3.67-2.5-14-1.33-21.17-4-32.5-6.17-21.17-10.5-29.5-12.67-20.67-25-37c-12.33-16.33-21.33-29.33-27-39s-10.17-19.83-13.5-30.5-5.17-21.33-5.5-32,1.83-23.5,6.5-38.5,13.83-32,27.5-51,23.67-35.33,30-49c6.33-13.67,10.5-20.83,12.5-21.5s3.17,1.67,3.5,7c.33,5.33-.83,12.83-3.5,22.5s-10.33,26.83-23,51.5-19.83,44.67-21.5,60-.67,29.67,3,43,12.83,32.67,27.5,58c14.67,25.33,24,45.83,28,61.5Z"/>
    <path id="steam-settsu-s-center" class="st1" d="M730.91,116.29c2.67,1.28,3.09,6.72-.1,13.89-5.05,8.03-8.25,12.18-12.91,18.51s-11.99,12.77-19.65,20.1-21.17,18.33-40.5,33-33.67,26.67-43,36-17.67,19.17-25,29.5-12.83,19.67-16.5,28-6.33,16.5-8,24.5-2.17,18-1.5,30,3.33,24.33,8,37,13.17,30.67,25.5,54,20,40.83,23,52.5,4.5,23.5,4.5,35.5-1,22-3,30-5.17,16.5-9.5,25.5-10.17,18.5-17.5,28.5-18.67,23.33-34,40-27,31.67-35,45-13.5,26.17-16.5,38.5-4.33,23-4,32,1.67,18.33,4,28,1.83,13.5-1.5,11.5c-3.33-2-7.33-7.33-12-16s-8-17.33-10-26-3-17.67-3-27,2-21.17,6-35.5,15.17-35.67,33.5-64c18.33-28.33,29.67-49.17,34-62.5s6.33-25.67,6-37-1.83-21.67-4.5-31c-2.67-9.33-11.17-27-25.5-53s-23-43.5-26-52.5-5-21-6-36,.5-30,4.5-45,10.17-29.5,18.5-43.5,19-27.83,32-41.5,25.67-24.83,38-33.5,28.85-18.03,52.53-34.54c25.31-17.65,32.55-21.83,40.4-27.27,7.23-5.02,19.68-8.94,31.07-17.19,8.26-7.19,11.91-9.34,13.67-8.5Z"/>
    <path id="steam-spread-right" class="st1" d="M859.81,256.86c2.33,0,2.83,6.83,1.5,20.5s-4.5,26.17-9.5,37.5-12.33,22.83-22,34.5-24.5,25-44.5,40-35,27.83-45,38.5-19.17,23.67-27.5,39-16.33,37.33-24,66c-7.67,28.67-13.33,46-17,52s-6,9-7,9-1.5-1.33-1.5-4,1.83-19.83,5.5-51.5c3.67-31.67,6.83-52.17,9.5-61.5s7-20.17,13-32.5,14.83-25.33,26.5-39,28.33-28.17,50-43.5,37-27.17,46-35.5,15.83-15.67,20.5-22,9.5-15.83,14.5-28.5,8.67-19,11-19Z"/>
  </g>
  <g id="stones" inkscape:groupmode="layer" inkscape:label="03 Sauna Stones 窶Exact Trace">
    <path id="stone-top-left" class="st2" d="M461.81,627.36c1.67,11.67,2.33,25.83,2,42.5s-2.17,31.5-5.5,44.5-7.83,21.83-13.5,26.5-12.83,7.5-21.5,8.5-16.5.67-23.5-1-14.33-4.33-22-8-20.33-12.33-38-26-35.5-29.33-53.5-47-28-28.67-30-33-3-9.17-3-14.5.67-9.83,2-13.5,4.33-8.17,9-13.5,10.83-9.67,18.5-13,16.17-5.67,25.5-7,30-1.5,62-.5,51.5,2.5,58.5,4.5,12.83,5.33,17.5,10,8,9.67,10,15,3.83,13.83,5.5,25.5Z"/>
    <path id="stone-bottom-left" class="st2" d="M460.81,860.86c3.67,7.33,5.33,13.33,5,18s-1.5,8.83-3.5,12.5-5.5,7.5-10.5,11.5-11,7.33-18,10-25.67,6.17-56,10.5-50.5,6.33-60.5,6-18.17-1.67-24.5-4-12.5-6.67-18.5-13-12-16.5-18-30.5-12.17-33.5-18.5-58.5-10-46.17-11-63.5-.67-29.33,1-36,4.17-12.5,7.5-17.5,6.5-8.33,9.5-10,6.83-2.5,11.5-2.5,9.17,1,13.5,3,21.33,13.33,51,34,51,36.33,64,47,28,25.33,45,44,27.33,31.67,31,39Z"/>
    <path id="stone-top-right" class="st2" d="M759.81,707.36c4.33,21,6.17,38.5,5.5,52.5s-2,23.17-4,27.5-4.5,7.33-7.5,9-7.33,2.5-13,2.5-20-2.33-43-7-51.67-7.67-86-9-53.83-3.5-58.5-6.5-7.5-7.83-8.5-14.5,0-14.17,3-22.5,9-18.83,18-31.5,23-27.5,42-44.5,33.67-29.17,44-36.5,18.83-12.33,25.5-15,14.17-3,22.5-1,16.67,7.17,25,15.5,15.17,18.67,20.5,31,10.17,29,14.5,50Z"/>
    <path id="stone-bottom-right" class="st2" d="M753.31,880.36c6.67,13,9.5,22.5,8.5,28.5s-5,10.83-12,14.5-30.83,5.5-71.5,5.5-76.83-.5-108.5-1.5-49.5-2.83-53.5-5.5-6.67-7.33-8-14c-1.33-6.67.17-18.67,4.5-36s7.83-28.33,10.5-33,6.83-9.5,12.5-14.5,15.83-9.5,30.5-13.5,33-6.5,55-7.5,37.83-.33,47.5,2,20.67,7.5,33,15.5,22.33,16.67,30,26,14.83,20.5,21.5,33.5Z"/>
  </g>
  <path id="next-letter-01-n" d="M265.71,988.61v74.26h15.29v-49.71h.21l30.89,49.71h16.33v-74.26h-15.29v49.82h-.21l-30.99-49.82h-16.22Z" inkscape:label="04 NEXT 窶N"/>
  <path id="next-letter-02-e" d="M338.49,988.61v74.26h56.37v-13.73h-40.04v-18.2h35.98v-12.69h-35.98v-15.91h39.21v-13.73h-55.54Z" inkscape:label="04 NEXT 窶E"/>
  <path id="next-letter-03-x" d="M426.11,1023.97l-25.9,38.9h18.3l16.54-25.69,16.22,25.69h19.45l-22.1-44.44,20.02-29.82h-17.89l-15.08,23.71-14.56-23.71h-18.93l23.92,35.36Z" inkscape:label="04 NEXT 窶X"/>
  <path id="next-letter-04-t" d="M492.98,1002.33v60.53h16.33v-60.53h22.26v-13.73h-60.84v13.73h22.26Z" inkscape:label="04 NEXT 窶T"/>
  <path id="settsu-letter-01-s" d="M281.78,1150.1h-15.81c-.07,4.58.76,8.53,2.5,11.86s4.07,6.07,7.02,8.22c2.95,2.15,6.34,3.73,10.19,4.73,3.85,1.01,7.82,1.51,11.91,1.51,5.06,0,9.52-.59,13.36-1.77s7.07-2.83,9.67-4.94,4.56-4.63,5.88-7.54c1.32-2.91,1.98-6.07,1.98-9.46,0-4.16-.88-7.57-2.65-10.24s-3.87-4.8-6.29-6.4c-2.43-1.59-4.87-2.76-7.33-3.48s-4.39-1.23-5.77-1.51c-4.65-1.18-8.41-2.15-11.28-2.91-2.88-.76-5.13-1.53-6.76-2.29s-2.72-1.59-3.28-2.5c-.55-.9-.83-2.08-.83-3.54,0-1.59.35-2.91,1.04-3.95.69-1.04,1.58-1.91,2.65-2.6s2.27-1.18,3.59-1.46c1.32-.28,2.63-.42,3.95-.42,2.01,0,3.87.17,5.56.52s3.21.94,4.52,1.77c1.32.83,2.37,1.98,3.17,3.43.8,1.46,1.27,3.29,1.4,5.51h15.81c0-4.3-.81-7.96-2.44-10.97-1.63-3.02-3.83-5.49-6.6-7.44s-5.95-3.35-9.52-4.21-7.3-1.3-11.18-1.3c-3.33,0-6.66.45-9.98,1.35s-6.31,2.29-8.94,4.16c-2.63,1.87-4.77,4.21-6.4,7.02s-2.44,6.12-2.44,9.93c0,3.4.64,6.29,1.92,8.68s2.96,4.39,5.04,5.98c2.08,1.59,4.44,2.89,7.07,3.9,2.63,1.01,5.34,1.85,8.11,2.55,2.7.76,5.37,1.46,8.01,2.08,2.63.62,4.99,1.35,7.07,2.18,2.08.83,3.76,1.87,5.04,3.12,1.28,1.25,1.92,2.88,1.92,4.89,0,1.87-.49,3.41-1.46,4.63-.97,1.21-2.18,2.17-3.64,2.86-1.46.69-3.02,1.16-4.68,1.4s-3.22.36-4.68.36c-2.15,0-4.23-.26-6.24-.78-2.01-.52-3.76-1.32-5.25-2.39-1.49-1.07-2.69-2.48-3.59-4.21-.9-1.73-1.35-3.85-1.35-6.34Z" inkscape:label="05 SETTSU 窶S1"/>
  <path id="settsu-letter-02-e" d="M338.49,1099.61v74.26h56.37v-13.73h-40.04v-18.2h35.98v-12.69h-35.98v-15.91h39.21v-13.73h-55.54Z" inkscape:label="05 SETTSU 窶E"/>
  <path id="settsu-letter-03-t" d="M421.92,1113.33v60.53h16.33v-60.53h22.26v-13.73h-60.84v13.73h22.26Z" inkscape:label="05 SETTSU 窶T1"/>
  <path id="settsu-letter-04-t" d="M485.92,1113.33v60.53h16.33v-60.53h22.26v-13.73h-60.84v13.73h22.26Z" inkscape:label="05 SETTSU 窶T2"/>
  <path id="settsu-letter-05-s" d="M544.62,1149.21h-15.81c-.07,4.58.76,8.53,2.5,11.86,1.73,3.33,4.07,6.07,7.02,8.22,2.95,2.15,6.34,3.73,10.19,4.73,3.85,1.01,7.82,1.51,11.91,1.51,5.06,0,9.52-.59,13.36-1.77,3.85-1.18,7.07-2.83,9.67-4.94s4.56-4.63,5.88-7.54c1.32-2.91,1.98-6.07,1.98-9.46,0-4.16-.88-7.57-2.65-10.24s-3.87-4.8-6.29-6.4c-2.43-1.59-4.87-2.76-7.33-3.48s-4.39-1.23-5.77-1.51c-4.65-1.18-8.41-2.15-11.28-2.91-2.88-.76-5.13-1.53-6.76-2.29-1.63-.76-2.72-1.59-3.28-2.5-.55-.9-.83-2.08-.83-3.54,0-1.59.35-2.91,1.04-3.95.69-1.04,1.58-1.91,2.65-2.6,1.07-.69,2.27-1.18,3.59-1.46,1.32-.28,2.63-.42,3.95-.42,2.01,0,3.87.17,5.56.52,1.7.35,3.21.94,4.52,1.77s2.37,1.98,3.17,3.43c.8,1.46,1.27,3.29,1.4,5.51h15.81c0-4.3-.81-7.96-2.44-10.97-1.63-3.02-3.83-5.49-6.6-7.44s-5.95-3.35-9.52-4.21-7.3-1.3-11.18-1.3c-3.33,0-6.66.45-9.98,1.35s-6.31,2.29-8.94,4.16-4.77,4.21-6.4,7.02c-1.63,2.81-2.44,6.12-2.44,9.93,0,3.4.64,6.29,1.92,8.68s2.96,4.39,5.04,5.98c2.08,1.59,4.44,2.89,7.07,3.9,2.63,1.01,5.34,1.85,8.11,2.55,2.7.76,5.37,1.46,8.01,2.08,2.63.62,4.99,1.35,7.07,2.18,2.08.83,3.76,1.87,5.04,3.12,1.28,1.25,1.92,2.88,1.92,4.89,0,1.87-.49,3.41-1.46,4.63-.97,1.21-2.18,2.17-3.64,2.86-1.46.69-3.02,1.16-4.68,1.4s-3.22.36-4.68.36c-2.15,0-4.23-.26-6.24-.78-2.01-.52-3.76-1.32-5.25-2.39-1.49-1.07-2.69-2.48-3.59-4.21-.9-1.73-1.35-3.85-1.35-6.34Z" inkscape:label="05 SETTSU 窶S2"/>
  <path id="settsu-letter-06-u" d="M664.51,1145.78v-46.18h-16.33v46.18c0,5.55-1.11,9.62-3.33,12.22-2.22,2.6-6.24,3.9-12.06,3.9-3.33,0-5.98-.47-7.96-1.4-1.98-.94-3.52-2.15-4.63-3.64-1.11-1.49-1.84-3.21-2.18-5.15-.35-1.94-.52-3.92-.52-5.93v-46.18h-16.33v46.18c0,10.12,2.76,17.61,8.27,22.46,5.51,4.85,13.29,7.28,23.35,7.28s17.68-2.44,23.3-7.33c5.62-4.89,8.42-12.36,8.42-22.41Z" inkscape:label="05 SETTSU 窶U"/>
  <path id="alliance-letter-01-a" d="M287.45,1257.93l9.67-27.25h.21l9.36,27.25h-19.24ZM289.01,1212.37l-28.08,74.26h16.43l5.82-16.54h27.77l5.62,16.54h16.95l-27.77-74.26h-16.74Z" inkscape:label="06 ALLIANCE 窶A1"/>
  <path id="alliance-letter-02-l" d="M341.49,1210.61v74.26h52.52v-13.73h-36.19v-60.53h-16.33Z" inkscape:label="06 ALLIANCE 窶L1"/>
  <path id="alliance-letter-03-l" d="M400.22,1210.61v74.26h52.52v-13.73h-36.19v-60.53h-16.33Z" inkscape:label="06 ALLIANCE 窶L2"/>
  <path id="alliance-letter-04-i" d="M462.55,1212.37v74.26h16.33v-74.26h-16.33Z" inkscape:label="06 ALLIANCE 窶I"/>
  <path id="alliance-letter-05-a" d="M515.21,1256.16l9.67-27.25h.21l9.36,27.25h-19.24ZM516.77,1210.61l-28.08,74.26h16.43l5.82-16.54h27.77l5.62,16.54h16.95l-27.77-74.26h-16.74Z" inkscape:label="06 ALLIANCE 窶A2"/>
  <path id="alliance-letter-06-n" d="M568.15,1210.55v74.26h15.29v-49.71h.21l30.89,49.71h16.33v-74.26h-15.29v49.82h-.21l-30.99-49.82h-16.22Z" inkscape:label="06 ALLIANCE 窶N"/>
  <path id="alliance-letter-07-c" d="M693.99,1235.57h15.81c-.49-4.3-1.66-8.11-3.54-11.44-1.87-3.33-4.25-6.12-7.12-8.37-2.88-2.25-6.14-3.97-9.78-5.15s-7.51-1.77-11.6-1.77c-5.69,0-10.8,1.01-15.34,3.02-4.54,2.01-8.37,4.78-11.49,8.32-3.12,3.54-5.51,7.68-7.18,12.43s-2.5,9.9-2.5,15.44.83,10.45,2.5,15.13c1.66,4.68,4.06,8.75,7.18,12.22,3.12,3.47,6.95,6.19,11.49,8.16,4.54,1.98,9.65,2.96,15.34,2.96,4.58,0,8.77-.69,12.58-2.08s7.14-3.4,9.98-6.03c2.84-2.63,5.13-5.82,6.86-9.57,1.73-3.74,2.81-7.94,3.22-12.58h-15.81c-.62,4.99-2.34,9.01-5.15,12.06-2.81,3.05-6.71,4.58-11.7,4.58-3.67,0-6.79-.71-9.36-2.13-2.57-1.42-4.65-3.31-6.24-5.67-1.59-2.36-2.76-5.01-3.48-7.96-.73-2.95-1.09-5.98-1.09-9.1s.36-6.41,1.09-9.46c.73-3.05,1.89-5.77,3.48-8.16,1.59-2.39,3.67-4.3,6.24-5.72,2.57-1.42,5.69-2.13,9.36-2.13,2.01,0,3.93.33,5.77.99,1.84.66,3.48,1.58,4.94,2.76,1.46,1.18,2.67,2.55,3.64,4.11s1.59,3.28,1.87,5.15Z" inkscape:label="06 ALLIANCE 窶C"/>
  <path id="alliance-letter-08-e" d="M721.49,1210.61v74.26h56.37v-13.73h-40.04v-18.2h35.98v-12.69h-35.98v-15.91h39.21v-13.73h-55.54Z" inkscape:label="06 ALLIANCE 窶E"/>
</svg>